REM MD5 8339466213181d49e08e740e4319da3d
FILE "Super Pang Collection (Japan).bin" BINARY
  TRACK 01 MODE2/2352
    INDEX 01 00:00:00
  TRACK 02 AUDIO
    INDEX 00 01:26:53
    INDEX 01 01:28:53
  TRACK 03 AUDIO
    INDEX 00 02:04:61
    INDEX 01 02:06:61
  TRACK 04 AUDIO
    INDEX 00 02:35:13
    INDEX 01 02:37:13
  TRACK 05 AUDIO
    INDEX 00 03:07:14
    INDEX 01 03:09:14
  TRACK 06 AUDIO
    INDEX 00 03:17:48
    INDEX 01 03:19:48
  TRACK 07 AUDIO
    INDEX 00 04:12:45
    INDEX 01 04:14:45
  TRACK 08 AUDIO
    INDEX 00 04:20:12
    INDEX 01 04:22:12
  TRACK 09 AUDIO
    INDEX 00 05:18:06
    INDEX 01 05:20:06
  TRACK 10 AUDIO
    INDEX 00 06:13:05
    INDEX 01 06:15:05
  TRACK 11 AUDIO
    INDEX 00 07:05:06
    INDEX 01 07:07:06
  TRACK 12 AUDIO
    INDEX 00 07:57:07
    INDEX 01 07:59:07
  TRACK 13 AUDIO
    INDEX 00 08:49:07
    INDEX 01 08:51:07
  TRACK 14 AUDIO
    INDEX 00 09:41:08
    INDEX 01 09:43:08
  TRACK 15 AUDIO
    INDEX 00 10:33:08
    INDEX 01 10:35:08
  TRACK 16 AUDIO
    INDEX 00 11:25:09
    INDEX 01 11:27:09
  TRACK 17 AUDIO
    INDEX 00 12:17:10
    INDEX 01 12:19:10
  TRACK 18 AUDIO
    INDEX 00 13:09:10
    INDEX 01 13:11:10
  TRACK 19 AUDIO
    INDEX 00 14:01:11
    INDEX 01 14:03:11
  TRACK 20 AUDIO
    INDEX 00 14:53:11
    INDEX 01 14:55:11
  TRACK 21 AUDIO
    INDEX 00 15:45:13
    INDEX 01 15:47:13
  TRACK 22 AUDIO
    INDEX 00 16:37:13
    INDEX 01 16:39:13
  TRACK 23 AUDIO
    INDEX 00 17:29:14
    INDEX 01 17:31:14
  TRACK 24 AUDIO
    INDEX 00 18:21:13
    INDEX 01 18:23:13
  TRACK 25 AUDIO
    INDEX 00 19:12:11
    INDEX 01 19:14:11
  TRACK 26 AUDIO
    INDEX 00 20:04:13
    INDEX 01 20:06:13
  TRACK 27 AUDIO
    INDEX 00 20:56:15
    INDEX 01 20:58:15
  TRACK 28 AUDIO
    INDEX 00 21:48:16
    INDEX 01 21:50:16
  TRACK 29 AUDIO
    INDEX 00 22:40:18
    INDEX 01 22:42:18
  TRACK 30 AUDIO
    INDEX 00 23:32:18
    INDEX 01 23:34:18
  TRACK 31 AUDIO
    INDEX 00 24:24:18
    INDEX 01 24:26:18
  TRACK 32 AUDIO
    INDEX 00 25:16:18
    INDEX 01 25:18:18
  TRACK 33 AUDIO
    INDEX 00 26:08:19
    INDEX 01 26:10:19
  TRACK 34 AUDIO
    INDEX 00 27:00:24
    INDEX 01 27:02:24
  TRACK 35 AUDIO
    INDEX 00 27:36:11
    INDEX 01 27:38:11
  TRACK 36 AUDIO
    INDEX 00 27:54:32
    INDEX 01 27:56:32
  TRACK 37 AUDIO
    INDEX 00 28:02:10
    INDEX 01 28:04:10
  TRACK 38 AUDIO
    INDEX 00 28:37:20
    INDEX 01 28:39:20
  TRACK 39 AUDIO
    INDEX 00 29:09:20
    INDEX 01 29:11:20
  TRACK 40 AUDIO
    INDEX 00 29:16:21
    INDEX 01 29:18:21
  TRACK 41 AUDIO
    INDEX 00 29:24:55
    INDEX 01 29:26:55
  TRACK 42 AUDIO
    INDEX 00 30:22:09
    INDEX 01 30:24:09
  TRACK 43 AUDIO
    INDEX 00 32:31:30
    INDEX 01 32:33:30
  TRACK 44 AUDIO
    INDEX 00 33:26:15
    INDEX 01 33:28:15
  TRACK 45 AUDIO
    INDEX 00 33:33:16
    INDEX 01 33:35:16
  TRACK 46 AUDIO
    INDEX 00 33:46:61
    INDEX 01 33:48:61
  TRACK 47 AUDIO
    INDEX 00 34:18:61
    INDEX 01 34:20:61
  TRACK 48 AUDIO
    INDEX 00 35:30:62
    INDEX 01 35:32:62
  TRACK 49 AUDIO
    INDEX 00 36:32:63
    INDEX 01 36:34:63
  TRACK 50 AUDIO
    INDEX 00 37:24:64
    INDEX 01 37:26:64
  TRACK 51 AUDIO
    INDEX 00 37:48:46
    INDEX 01 37:50:46
  TRACK 52 AUDIO
    INDEX 00 38:40:46
    INDEX 01 38:42:46
  TRACK 53 AUDIO
    INDEX 00 39:12:46
    INDEX 01 39:14:46
  TRACK 54 AUDIO
    INDEX 00 39:44:46
    INDEX 01 39:46:46
  TRACK 55 AUDIO
    INDEX 00 40:57:11
    INDEX 01 40:59:11
  TRACK 56 AUDIO
    INDEX 00 41:04:12
    INDEX 01 41:06:12
  TRACK 57 AUDIO
    INDEX 00 41:56:12
    INDEX 01 41:58:12
  TRACK 58 AUDIO
    INDEX 00 42:48:13
    INDEX 01 42:50:13
  TRACK 59 AUDIO
    INDEX 00 43:40:14
    INDEX 01 43:42:14
  TRACK 60 AUDIO
    INDEX 00 44:32:15
    INDEX 01 44:34:15
  TRACK 61 AUDIO
    INDEX 00 45:14:15
    INDEX 01 45:16:15
REM LEADOUT 48:46:15
